# xmcd
# Copyright (C) 1995-1998 Ti Kan
#
# Track frame offsets:
#       150
#       22009
#       50409
#       70674
#       89251
#       108572
#       125141
#       145672
#       164585
#       185219
#       205086
#       225741
#       246589
#       262983
#
# Disc length: 3746 seconds
#
# Revision: 2
# Processed by: cddbd v1.5PL3 Copyright (c) Steve Scherf et al.
# Submitted via: CD-Transfer v1.0
#
DISCID=d10ea00e
DTITLE=Funky Brotherhood - Shake
DYEAR=2004
DGENRE=
TTITLE0=Shake
TTITLE1=Off The Hook
TTITLE2=Don't Stop
TTITLE3=Take Me Up
TTITLE4=If It's Love
TTITLE5=Crazy Dance
TTITLE6=Stop This Train
TTITLE7=It's Allright
TTITLE8=Listen To Your Heart
TTITLE9=B.party
TTITLE10=Angel
TTITLE11=Only Reason
TTITLE12=Butterfly
TTITLE13=Funky Summer Remix
EXTD=
EXTT0=
EXTT1=
EXTT2=
EXTT3=
EXTT4=
EXTT5=
EXTT6=
EXTT7=
EXTT8=
EXTT9=
EXTT10=
EXTT11=
EXTT12=
EXTT13=
PLAYORDER=
